<mxfile host="Electron" modified="2024-03-13T10:31:29.169Z" agent="Mozilla/5.0 (Windows NT 10.0; Win64; x64) AppleWebKit/537.36 (KHTML, like Gecko) draw.io/21.2.8 Chrome/112.0.5615.165 Electron/24.2.0 Safari/537.36" etag="paU0qBhFt82umFrE6Hzs" version="21.2.8" type="device">
  <diagram name="Page-1" id="mzX5eBjT3HWGQeu4-6pS">
    <mxGraphModel dx="989" dy="582" grid="1" gridSize="10" guides="1" tooltips="1" connect="1" arrows="1" fold="1" page="1" pageScale="1" pageWidth="827" pageHeight="1169" math="0" shadow="0">
      <root>
        <mxCell id="0" />
        <mxCell id="1" parent="0" />
        <mxCell id="9CzmINCu-pt9xoeryCxH-1" value="server-infrastructure&lt;br&gt;production" style="shape=umlFrame;whiteSpace=wrap;html=1;pointerEvents=0;width=120;height=30;align=left;" vertex="1" parent="1">
          <mxGeometry x="10" y="10" width="680" height="130" as="geometry" />
        </mxCell>
        <mxCell id="9CzmINCu-pt9xoeryCxH-7" value="HTTP" style="edgeStyle=orthogonalEdgeStyle;rounded=0;orthogonalLoop=1;jettySize=auto;html=1;exitX=1;exitY=0.5;exitDx=0;exitDy=0;entryX=0;entryY=0.5;entryDx=0;entryDy=0;fillColor=#f8cecc;strokeColor=#b85450;" edge="1" parent="1" source="9CzmINCu-pt9xoeryCxH-2" target="9CzmINCu-pt9xoeryCxH-4">
          <mxGeometry relative="1" as="geometry" />
        </mxCell>
        <mxCell id="9CzmINCu-pt9xoeryCxH-2" value="&lt;div style=&quot;box-sizing:border-box;width:100%;background:#e4e4e4;padding:2px;&quot;&gt;nginx reverse proxy&lt;/div&gt;" style="verticalAlign=top;align=left;overflow=fill;html=1;whiteSpace=wrap;" vertex="1" parent="1">
          <mxGeometry x="160" y="75" width="110" height="50" as="geometry" />
        </mxCell>
        <mxCell id="9CzmINCu-pt9xoeryCxH-6" value="HTTPS" style="edgeStyle=orthogonalEdgeStyle;rounded=0;orthogonalLoop=1;jettySize=auto;html=1;exitX=0.5;exitY=0.5;exitDx=0;exitDy=0;exitPerimeter=0;fillColor=#dae8fc;strokeColor=#6c8ebf;" edge="1" parent="1" source="9CzmINCu-pt9xoeryCxH-3" target="9CzmINCu-pt9xoeryCxH-2">
          <mxGeometry relative="1" as="geometry" />
        </mxCell>
        <mxCell id="9CzmINCu-pt9xoeryCxH-3" value="" style="shape=umlActor;verticalLabelPosition=bottom;verticalAlign=top;html=1;" vertex="1" parent="1">
          <mxGeometry x="30" y="80" width="20" height="40" as="geometry" />
        </mxCell>
        <mxCell id="9CzmINCu-pt9xoeryCxH-9" style="edgeStyle=orthogonalEdgeStyle;rounded=0;orthogonalLoop=1;jettySize=auto;html=1;exitX=1;exitY=0.5;exitDx=0;exitDy=0;" edge="1" parent="1" source="9CzmINCu-pt9xoeryCxH-4" target="9CzmINCu-pt9xoeryCxH-8">
          <mxGeometry relative="1" as="geometry" />
        </mxCell>
        <mxCell id="9CzmINCu-pt9xoeryCxH-4" value="&lt;div style=&quot;box-sizing:border-box;width:100%;background:#e4e4e4;padding:2px;&quot;&gt;server.py&lt;/div&gt;" style="verticalAlign=top;align=left;overflow=fill;html=1;whiteSpace=wrap;" vertex="1" parent="1">
          <mxGeometry x="360" y="75" width="110" height="50" as="geometry" />
        </mxCell>
        <mxCell id="9CzmINCu-pt9xoeryCxH-8" value="&lt;div style=&quot;box-sizing:border-box;width:100%;background:#e4e4e4;padding:2px;&quot;&gt;PostgreSQL&lt;/div&gt;" style="verticalAlign=top;align=left;overflow=fill;html=1;whiteSpace=wrap;" vertex="1" parent="1">
          <mxGeometry x="560" y="75" width="110" height="50" as="geometry" />
        </mxCell>
        <mxCell id="9CzmINCu-pt9xoeryCxH-10" value="docker-container&lt;br&gt;web" style="shape=umlFrame;whiteSpace=wrap;html=1;pointerEvents=0;width=100;height=30;fillColor=#f5f5f5;fontColor=#333333;strokeColor=#666666;" vertex="1" parent="1">
          <mxGeometry x="150" y="30" width="330" height="100" as="geometry" />
        </mxCell>
        <mxCell id="9CzmINCu-pt9xoeryCxH-11" value="docker-container&lt;br&gt;db" style="shape=umlFrame;whiteSpace=wrap;html=1;pointerEvents=0;width=100;height=30;fillColor=#f5f5f5;fontColor=#333333;strokeColor=#666666;" vertex="1" parent="1">
          <mxGeometry x="490" y="30" width="190" height="100" as="geometry" />
        </mxCell>
        <mxCell id="9CzmINCu-pt9xoeryCxH-12" value="Waitress WYSWIG" style="text;html=1;align=center;verticalAlign=middle;resizable=0;points=[];autosize=1;strokeColor=none;fillColor=none;fontSize=9;" vertex="1" parent="1">
          <mxGeometry x="365" y="98" width="100" height="20" as="geometry" />
        </mxCell>
      </root>
    </mxGraphModel>
  </diagram>
</mxfile>
